<?xml version="1.0" encoding="iso-8859-1"?>
<!-- Generator: Adobe Illustrator 21.0.0, SVG Export Plug-In . SVG Version: 6.00 Build 0)  -->
<svg xmlns="http://www.w3.org/2000/svg" xmlns:xlink="http://www.w3.org/1999/xlink" version="1.1" id="Capa_1" x="0px" y="0px" viewBox="0 0 512 512" style="enable-background:new 0 0 512 512;" xml:space="preserve" width="512" height="512">
<g>
	<path style="fill:#3E5959;" d="M256,0C115.3,0,0,115.3,0,256s115.3,256,256,256s256-115.3,256-256S396.7,0,256,0z"/>
	<path style="fill:#293939;" d="M512,256c0,140.7-115.3,256-256,256V0C396.7,0,512,115.3,512,256z"/>
	<path style="fill:#FFFB7C;" d="M482,256c0,124.2-101.8,226-226,226S30,380.2,30,256S131.8,30,256,30S482,131.8,482,256z"/>
	<path style="fill:#FFD946;" d="M482,256c0,124.2-101.8,226-226,226V30C380.2,30,482,131.8,482,256z"/>
	<path style="fill:#3E5959;" d="M366.099,397.899L311.8,325.6c-4.499-6-12.599-7.8-19.2-4.2c-11.1,6.301-24,9.6-36.599,9.6   s-25.499-3.3-36.599-9.6c-6.601-3.6-14.702-1.8-19.2,4.2l-54.3,72.299c-2.401,3.3-3.6,7.5-2.701,11.4   c0.601,4.2,3.001,7.8,6.601,10.201C181.3,440.2,218.2,451,256,451s74.7-10.8,106.199-31.5c3.6-2.401,6-6,6.601-10.201   C369.699,405.399,368.5,401.199,366.099,397.899z"/>
	<path style="fill:#3E5959;" d="M76.249,280.565c-3.516,0-6.943-1.23-9.668-3.53c-3.179-2.681-5.098-6.548-5.317-10.708   C61.088,262.914,61,259.457,61,256c0-73.638,40.854-140.229,106.597-173.789c3.721-1.875,8.042-2.139,11.938-0.747   c3.911,1.421,7.046,4.395,8.687,8.218l35.508,83.13c2.944,6.899,0.337,14.912-6.094,18.765   c-22.573,13.506-36.27,37.192-36.621,63.384c-0.103,7.515-5.742,13.784-13.213,14.692l-89.766,10.811   C77.45,280.536,76.85,280.565,76.249,280.565z"/>
	<path style="fill:#293939;" d="M435.751,280.565c-0.601,0-1.201-0.029-1.787-0.103l-89.766-10.811   c-7.471-0.908-13.11-7.178-13.213-14.692c-0.352-26.191-14.048-49.878-36.621-63.384c-6.431-3.853-9.038-11.865-6.094-18.765   l35.508-83.13c1.641-3.823,4.775-6.797,8.687-8.218c3.896-1.421,8.218-1.157,11.938,0.747C410.146,115.771,451,182.362,451,256   c0,3.457-0.088,6.914-0.264,10.327c-0.22,4.16-2.139,8.027-5.317,10.708C442.694,279.335,439.267,280.565,435.751,280.565z"/>
	<path style="fill:#3E5959;" d="M256,211c-24.901,0-45,20.099-45,45c0,24.899,20.099,45,45,45s45-20.101,45-45   C301,231.099,280.901,211,256,211z"/>
	<path style="fill:#293939;" d="M256,301v-90c24.901,0,45,20.099,45,45C301,280.899,280.901,301,256,301z"/>
	<path style="fill:#293939;" d="M368.8,409.3c-0.601,4.2-3.001,7.8-6.601,10.201C330.7,440.2,293.8,451,256,451V331   c12.599,0,25.499-3.3,36.599-9.6c6.601-3.6,14.702-1.8,19.2,4.2l54.3,72.299C368.5,401.199,369.699,405.399,368.8,409.3z"/>
</g>















</svg>
