<?xml version="1.0" encoding="utf-8"?>
<!-- Generator: Adobe Illustrator 22.1.0, SVG Export Plug-In . SVG Version: 6.00 Build 0)  -->
<svg version="1.1" id="Layer_1" xmlns="http://www.w3.org/2000/svg" xmlns:xlink="http://www.w3.org/1999/xlink" x="0px" y="0px"
	 viewBox="0 0 808 277" style="enable-background:new 0 0 808 277;" xml:space="preserve">
<style type="text/css">
	.st0{fill:#FF066C;}
	.st1{fill:#FFFFFF;}
	.st2{fill:url(#SVGID_1_);}
	.st3{fill:url(#SVGID_2_);}
	.st4{fill:#1D303D;}
	.st5{fill:#D30060;}
</style>
<path class="st0" d="M310.4,131.1c-2.7,4.8-5.4,9.6-8.2,14.1c-22.2,36.6-46.2,71.9-68.1,108.7c-0.6,1-1.3,2.1-2.4,2.5
	c-1.2,0.5-2.6-0.1-3.8-0.6C163.9,227.3,0.3,99.9,88.5,22c19.3-17,50.7-12.8,71,2.9c20.3,15.7,32,39.9,41.8,63.7
	c6-21.8,15.7-42.6,28.6-61.2c14-20.2,41.5-27.6,65.1-22.1C353.1,18.6,329.7,95.8,310.4,131.1z"/>
<path class="st1" d="M306.1,61.2c-12-7.9-24.6-14-38.6-16c-15.9-2.3-31.7-1.3-47.3,3c-21.5,6-41.9,14.5-61.3,25.3
	c-14.3,8-27.9,17.1-40.6,27.4c-1.8,1.5-2.1,2.5-1.1,4.6c11.2,23.9,22.3,47.8,33.4,71.7c0.9,1.9,1.7,2.6,3.9,2.1
	c18.3-3.4,36.1-8.7,53.3-15.8c13.6-5.6,26.9-12.2,39.6-19.8c17-10.1,31.9-22.2,43.4-38.6C299.9,91.9,303.9,77,306.1,61.2z"/>
<linearGradient id="SVGID_1_" gradientUnits="userSpaceOnUse" x1="131.8181" y1="88.3775" x2="202.8997" y2="88.3775" gradientTransform="matrix(1.0538 2.179425e-02 2.179425e-02 1.0904 -37.5971 -36.6212)">
	<stop  offset="5.376339e-03" style="stop-color:#316FD9"/>
	<stop  offset="0.5917" style="stop-color:#306ED7"/>
	<stop  offset="0.8027" style="stop-color:#2A68D0"/>
	<stop  offset="0.9527" style="stop-color:#215FC5"/>
	<stop  offset="1" style="stop-color:#1D5BBF"/>
</linearGradient>
<path class="st2" d="M103.7,84.6c0.2,0.2,0.3,0.3,0.5,0.5c1.9-0.6,3.9-1.3,5.8-1.8c7.9-2,15.9-3,23.2,2.9c1.3,1.1,2.2,0.4,3.2-0.3
	c12.3-8.9,25.1-16.9,38.7-23.6c0.7-0.4,1.6-0.6,1.9-1.5c1.6-5.1,1.3-10.2-1.5-14.8c-2.5-4.2-6.7-6-11.3-5.7
	c-6.4,0.4-12.5,2.2-17.9,5.7c-13.7,8.9-25.7,19.9-36.8,31.8C107.5,80.1,105.6,82.4,103.7,84.6z"/>
<linearGradient id="SVGID_2_" gradientUnits="userSpaceOnUse" x1="155.3767" y1="179.8897" x2="233.8328" y2="179.8897">
	<stop  offset="5.376339e-03" style="stop-color:#316FD9"/>
	<stop  offset="0.5917" style="stop-color:#306ED7"/>
	<stop  offset="0.8027" style="stop-color:#2A68D0"/>
	<stop  offset="0.9527" style="stop-color:#215FC5"/>
	<stop  offset="1" style="stop-color:#1D5BBF"/>
</linearGradient>
<path class="st3" d="M155.4,200.7c1.2,0,2.4,0.1,3.6,0.1c15.3,0,30.3-1.8,45.2-4.9c9.3-1.9,17.9-5,24.9-11.7
	c5.8-5.5,6.3-12.2,1.5-19.2c-2.9-4.3-8.2-7.1-11-5.9c-14,6.2-28.6,10.8-43.5,14.4c-2,0.5-2.7,1.4-2.7,3.6c0,4.3-1.7,8-4.2,11.3
	C165.3,193.5,160.5,197,155.4,200.7z"/>
<path class="st4" d="M225.2,158.8c3.4,2.3,6.1,4.5,7.8,7.8c3.6,6.9,2.5,13.6-3.3,18.9c-6.9,6.4-15.3,10-24.3,12
	c-14.2,3.1-28.6,4.8-43.2,4.9c-3.2,0-6.4-0.5-9.6-0.7c-1-0.1-1.9-0.2-2.2-1.3c-0.3-1.3,0.6-1.8,1.6-2.3c3-1.6,6.2-3.1,9.1-4.9
	c5.9-3.7,11-8.2,12.3-15.9c-3.2-0.3-5.9,1.1-8.7,1.5c-3.6,0.6-7.2,1.3-10.7,2.1c-1.8,0.4-3.2,0.1-3.8-1.8c-1.7-5.9-5.1-8.4-11.6-8.4
	c-4.3,0-8-2.4-10.4-7.2c-5.2-10.8-10.3-21.7-15.2-32.7c-2.2-4.8-0.6-8.4,0.9-12.4c0.1-0.3,0.3-0.6,0.6-0.9c4.2-3.7,4.4-7.8,1.3-12.3
	c-1.7-2.5-1-4.3,1.3-6c4.9-3.7,9.7-7.5,14.8-11.5c-6.8-4.2-13.5-3.2-20.1-1.2c-3.3,1-6.4,2.5-9.6,3.8c-1.1,0.4-2.3,0.9-3.1-0.3
	c-0.7-1.1,0.1-1.9,0.7-2.7c11.8-16.9,26.8-30.5,43.8-42c5.6-3.8,12-5.6,18.7-6.4c9.7-1.1,17.2,6.3,17,16.5c0,1.2-0.2,2.5-0.3,4.1
	c5.1-2.1,9.9-4,14.7-6c15.7-6.3,31.7-11.3,48.6-12.6c20.2-1.6,39.5,1.7,57,12.6c2.7,1.7,5.2,3.7,7.9,5.5c0.8,0.5,1.1,1,1.1,1.9
	c-0.9,14.6-4.1,28.7-11.9,41.2c-9,14.3-20.6,26.5-34.8,36c-10.9,7.4-22.3,13.9-34.2,19.6C226.8,157.9,226.3,158.2,225.2,158.8z
	 M304.8,61.4c-11.8-7.8-24.2-13.7-38-15.7c-15.7-2.2-31.2-1.2-46.6,3c-21.2,5.9-41.2,14.3-60.4,25c-14.1,7.8-27.4,16.8-40,26.9
	c-1.8,1.4-2,2.5-1.1,4.5c11,23.4,21.9,46.9,32.8,70.4c0.8,1.8,1.7,2.5,3.9,2.1c18-3.4,35.5-8.6,52.5-15.5c13.4-5.5,26.4-12,39-19.4
	c16.7-9.9,31.5-21.8,42.7-37.9C298.7,91.6,302.6,76.9,304.8,61.4z M105.7,83.8c0.1,0.2,0.3,0.3,0.4,0.5c1.8-0.6,3.7-1.2,5.6-1.7
	c7.6-2,15.1-3.1,22,2.2c1.3,1,2.1,0.3,3-0.3c11.8-8.4,24.2-16,37.2-22.4c0.7-0.3,1.5-0.6,1.8-1.4c1.6-4.7,1.5-9.3-1.1-13.5
	c-2.3-3.8-6.3-5.4-10.6-5c-6.1,0.5-11.9,2.2-17.1,5.6c-13.2,8.4-24.7,18.7-35.6,29.9C109.3,79.6,107.5,81.7,105.7,83.8z
	 M159.4,199.2c1.1,0,2.2,0,3.3,0c14.1-0.4,27.9-2.5,41.7-5.6c8.6-1.9,16.6-4.9,23.3-10.9c5.5-5,6.1-10.8,2-16.8
	c-2.6-3.7-7.3-6-10-4.8c-13.1,5.8-26.6,10.3-40.5,13.8c-1.9,0.5-2.5,1.3-2.6,3.2c-0.2,3.8-1.8,7-4.2,9.9
	C168.8,192.6,164.3,195.8,159.4,199.2z M126.4,144c1.9-1.2,3.7-2.3,5.6-3.5c-0.9-1.9-1.6-3.5-2.4-5.1c-0.2-0.5-0.5-0.9-0.8-1.4
	C123.4,138.3,123.3,138.8,126.4,144z M136,149.4c-1-2.2-2-4.2-2.9-6.3c-1.1,0.5-2,0.9-2.9,1.4c-0.9,0.6-2.2,0.8-2.8,1.8
	C128.8,150.3,128.9,150.3,136,149.4z M120.2,115.3c-5.1,5.9-5.1,5.9-2.3,9.7C122.6,119.9,122.6,119.9,120.2,115.3z M135.6,163.4
	c0.8,6.3,5.5,3.8,9,4.7C142.9,162.9,142.9,162.9,135.6,163.4z M125.8,127.7c-5.4,4.8-5.5,4.9-2.8,9.2
	C128.4,132,128.4,132,125.8,127.7z M138.7,155.5c-1.5-4.5-1.5-4.5-8.7-3.7C131.4,156.5,132.6,157,138.7,155.5z M123.2,122.1
	c-5.2,4.6-5.4,5.2-2.8,8.6C125.2,125.5,125.2,125.5,123.2,122.1z M141.4,161.2c-1.6-4.3-1.9-4.4-8.5-3.1
	C134.4,162.1,134.9,162.3,141.4,161.2z"/>
<path class="st4" d="M304,119.2c2-1.3,2-4.4,4.7-4.7c1.7,2.3-0.1,5.5,1.8,7.1c1.8,1.6,4.4,2.2,6.7,3.3c-0.2,2.2-1.6,2.8-3.2,3.1
	c-3,0.6-4.2,2.2-3.6,5.3c0.3,1.9,0.2,3.9,0.2,5.8c0,1-0.2,1.9-1.3,2.2c-0.9,0.3-1.5-0.4-2-1.1c-1.6-2.5-3.2-5-4.8-7.5
	c-1.7-0.1-2.8,1.1-4,1.7c-1.1,0.6-2.3,1.3-3.4,0c-1-1.2-0.3-2.3,0.4-3.4c0.3-0.4,0.5-0.8,0.8-1.1c1.9-2.1,2.6-4.2,0.5-6.6
	c-0.2-0.2-0.4-0.6-0.4-0.9c-0.2-1.5-1.5-3.2-0.4-4.5c1.1-1.3,2.8-0.2,4.2,0.2C301.6,118.4,302.9,118.8,304,119.2z"/>
<path class="st4" d="M64.1,229.4c1-1.3,2-2.5,3-3.7c0.8-0.9,1.2-2.6,2.9-1.8c1.4,0.7,0.9,2.2,0.8,3.4c-0.1,1.4-0.2,2.7-0.3,4.4
	c2.5,0.6,4.9,1.3,7.3,1.9c0.9,0.2,1.8,0.7,1.7,1.8c-0.1,1.2-1.1,1.3-2,1.3c-1,0.1-2,0.3-3,0.3c-3.5,0.2-4.9,2-4.6,5.5
	c0.1,1.2,0.3,3-1.4,3.5c-1.6,0.5-2.8-0.9-3.2-2c-1.7-4.3-4.3-3.3-7.3-1.6c-1,0.6-2.2,1.2-3-0.2c-0.7-1.1,0.3-1.9,0.9-2.7
	c0.3-0.4,0.5-0.8,0.9-1c2.8-2,2.8-4.1,0.2-6.3c-0.6-0.5-1.1-1.2-1.5-1.8c-0.5-0.7-0.6-1.5-0.2-2.3c0.5-1,1.4-1.1,2.4-0.8
	C59.7,228,61.8,228.7,64.1,229.4z"/>
<path class="st4" d="M194.2,21.4c0.4-1.6,0.8-2.9,1.1-4.2c0.2-1.1,0.2-2.5,1.7-2.5c1.4-0.1,1.7,1.3,2.2,2.3c0.7,1.4,1.4,2.9,2,4.3
	c2.5,0.5,4.8-0.8,7.4-0.1c0,2.6-2.5,3-3.8,4.5c0.4,1.9,2.1,3.1,3.1,4.7c0.6,0.9,1.1,1.8,0.4,2.8c-0.8,1.2-1.8,0.4-2.7,0
	c-7-3.2-7-3.2-11.9,3.2c-0.8,1-0.8,1-3.1,1.7c-0.2-4,2.1-7.4,2.1-11.2c-1.7-0.8-3.3-1.7-5-2.4c-0.9-0.4-1.8-0.7-1.5-1.9
	c0.3-1.1,1.3-1.1,2.2-1.1C190.3,21.3,192.1,21.4,194.2,21.4z"/>
<path class="st4" d="M78.4,122.5c-1.3,2.9-4,3.8-6.4,4.8c-14.1,5.9-28.3,11.6-42.5,17.4c-2.9,1.2-5.7,2.4-8.5,3.6
	c-1.2,0.5-2.8,1.6-3.6-0.2c-0.7-1.6,1.2-2.3,2.3-2.8c2.5-1.3,5.2-2.5,7.8-3.6c15.7-6.9,31.8-12.7,47.7-19.1
	C76.1,122.3,77,121.8,78.4,122.5z"/>
<path class="st4" d="M89.3,230.3c-0.2-1.5,0.8-1.8,1.8-2.1c17.8-5.5,34.2-14.2,51.7-20.5c1.4-0.5,3-1.5,3.9,0.4c0.7,1.7-1,2.4-2.2,3
	c-6,2.9-12.2,5.3-18.4,7.7c-11.1,4.2-22.2,8.4-33.6,11.8C91.3,230.8,90.2,231.4,89.3,230.3z"/>
<path class="st4" d="M113,187.1c0.1,1.5-1.3,1.7-2.2,2.1c-16.2,7.5-32.1,15.6-48.8,22c-1.6,0.6-3.3,1-4.9,1.6
	c-0.9,0.3-1.9,0.4-2.3-0.7c-0.5-1.2,0.6-1.6,1.4-2c3.8-1.8,7.6-3.7,11.6-5.2c11-4,21.2-9.8,32.2-13.7c3.8-1.3,7.5-2.9,11.2-4.3
	C111.8,186.6,112.4,186.2,113,187.1z"/>
<path class="st4" d="M45.6,149.5c-0.2,1.9-1.6,2.4-2.9,3c-11.1,5.3-22.2,10.8-33.8,15.1c-1.3,0.5-3,1.5-3.8-0.5
	c-0.7-1.7,1.1-2,2.1-2.5c11.8-5.8,24.1-10.6,36.3-15.4C44.1,149,44.8,148.7,45.6,149.5z"/>
<path class="st4" d="M143.2,184.8c-3.1,3.6-6.9,4.6-10.4,6c-9.3,3.8-18.6,7.4-28,11.1c-1.8,0.7-3.7,1.2-5.5,1.8
	c-0.9,0.3-1.9,0.6-2.4-0.5c-0.6-1.4,0.6-1.8,1.6-2.1c3.4-1.3,6.8-2.6,10.2-3.9c9.6-3.7,19.1-7.4,28.7-11.2
	C138.9,185.3,140.5,184.7,143.2,184.8z"/>
<path class="st4" d="M92.7,96.1c0.5,1.8-0.7,2.3-1.7,3c-7.8,5.3-16.7,8.3-25.4,11.8c-1.1,0.4-2.4,0.6-2.9-0.8
	c-0.5-1.3,0.5-1.9,1.5-2.2c9.3-3.5,18.3-7.7,27.3-11.9C91.8,95.8,92.3,96.1,92.7,96.1z"/>
<path class="st4" d="M175.6,25.6c-1.2,1.6-2.8,2.2-4.6,0.9c-1.7-1.2-1.5-2.7-0.5-4.2c1.1-1.5,2.6-2.4,4.4-1.3
	C176.7,22.2,176.7,23.8,175.6,25.6z"/>
<g>
	<path class="st5" d="M61.5,157.2c2-0.6,7.8-1.2,9.8-1.8c1.5-0.4,1.6-2,2.6-0.1c1,1.7,1.1,0,0.1,1.1c-5.4,6-10.9,11.9-16.3,17.9
		c-0.8,0.9-5.7,4.8-5.5,6.5c9.9-0.7,23.5-4.6,33.4-5.4c1.4-0.1-1.6,1-1,2.8c0.6,1.6-1.4,1.3-2.5,2.2c-2.5,1.8-3.2,4.3-5.8,6.1
		c11.2-0.8,25.4-4.2,35-9.5c2.8-1.5,5.2-3.8,6.5-6.9c3-6.9-0.1-21.4-5.9-26.7c-6.8-6.1-14.4-9.1-23.1-7.1
		C78.9,138.7,67.9,148.9,61.5,157.2z"/>
	<path class="st4" d="M79.4,179.7c-7.8,1.2-14.9,2-21.9,2.5c-0.9,0.1-1.8,0.2-2.7,0.2c-1.5,0-3.2,0.4-4.1-1.1c-1-1.6,0.1-3.1,1-4.4
		c2.4-3.8,5.3-7.1,8.4-10.4c2.8-3,5.8-5.8,9.4-9.3c-2.6,0.9-4.4,1.5-6.1,2c-1.1,0.3-2.3,0.9-3.2-0.2c-1-1.2-0.4-2.4,0.2-3.5
		c3.3-5.6,7.7-10.2,12.8-14.2c6.1-4.9,13-7.5,20.9-7.5c17-0.1,30.4,15.6,27.5,32.3c-1.2,6.9-6.1,10.8-11.5,14.2
		c-8.7,5.5-18.4,8.1-28.5,9.1c-2.7,0.3-6.3,1.4-7.7-1.8c-1.4-3,2.2-4.3,3.8-6.2C78,181.1,78.4,180.7,79.4,179.7z M64.8,155.7
		c2-0.6,4.1-1.2,6.1-1.8c1.5-0.5,3.3-1.3,4.3,0.4c0.9,1.6-0.8,2.7-1.7,3.7c-5.5,5.8-11.1,11.5-16.6,17.3c-0.8,0.8-2,1.6-1.8,3.2
		c9.8-0.9,19.6-1.9,29.4-2.8c1.4-0.1,2.9-0.7,3.6,1c0.6,1.5-0.6,2.6-1.8,3.4c-2.5,1.8-5.1,3.5-7.6,5.3c11-1.1,21.5-3.6,31.2-8.8
		c2.8-1.5,5.2-3.7,6.7-6.7c3.1-6.6,0.5-20.2-5.1-25c-6.5-5.6-13.9-8.2-22.6-6C78.7,141.3,71.3,147.7,64.8,155.7z"/>
	<path class="st0" d="M94.5,169.7c-6.2,0.2-12,0.3-17.8,0.5c-1.4,0-3.2,0.5-3.8-1.4c-0.5-1.6,0.6-2.8,1.7-3.9
		c4.3-4.3,8.6-8.6,12.9-13c-2-1.1-4.5-0.3-6.4-2.3c3.4-4.1,7.8-6.2,12.8-7.1c6.6-1.1,12.8,0.3,16.6,6.2c4.5,6.9,3.8,17.1-2.8,22.4
		c-3.4,2.7-7.7,3.5-11.9,3.4C92.1,174.3,93.5,171.9,94.5,169.7z"/>
</g>
<g>
	<path class="st0" d="M456.5,90.4c-1.3,6.4-1.4,11.1-0.8,14.6c1.6,8.6,6.4,8,8.5,7.6c7-1.3,12.3-9.1,17.1-17.4
		c0.1-0.2,0.4-0.4,0.9-0.5c3.3-0.6,5.2,1.4,5.6,3.6c0.3,1.7-0.1,3.9-1.5,6.2c-7.8,13.1-18.2,21.9-28.1,23.7
		c-2.4,0.4-4.9,0.4-7.3-0.1c-6-1.1-18.3-10.9-20.3-21.8c-1.4-7.5,2.6-33.7,7.4-47.1c-12.8,21-29,47.5-32.6,51.4c-1,1-2,1.6-3.3,1.8
		c-7.3,1.3-9.3-5.1-11.8-19c-1.9-10.5-3.9-24-5.4-32.1c-0.2-1.1-0.4-2-0.5-2.9c-13,27.8-29.1,75.6-30,96.8c-0.1,1.3,0.1,2.3,0.3,3.2
		c0.3,1.8,1,2.8,1.1,3.4c0.1,0.8-0.6,1-1.3,1.2c-4.3,0.8-13-6.5-13.7-10.2c0-0.2-0.1-0.5-0.1-0.6c-0.8-28.9,30.3-137,38.8-141.4
		c0.6-0.3,1.4-0.6,2-0.7c6-1.1,14.8,3.5,19.6,6.5c0.4,0.2,0.7,1.3,1,2.9c1.9,10.5,2.9,47.3,5.1,59.6c0.5,2.7,1.1,4.3,1.6,4.2
		c3.3-0.6,36.8-61.4,41.2-66.4c2.2-2.4,4-6,8.3-6.8c7.6-1.4,20.5-0.3,21.6,4C480.9,19.1,461.7,65.1,456.5,90.4z"/>
	<path class="st0" d="M522.4,115.8c-4.9,0.9-10.5-0.1-13.4-4.9c-2.8,3.8-6.2,8.1-11.3,9.1c-7.2,1.3-17.6-6.4-19.6-17.2
		c-2.3-15.3,16.2-43.8,31.1-46.5c3.8-0.7,7.9,3.7,10.4,6.8c3.2-5.2,4.3-5.9,5.8-6.2c4-0.7,13.1,0.6,13.9,4.9
		c0.3,1.5-3.1,8.2-4.1,10.2c-4.8,9.6-11.3,25.7-10.4,30.3c0.2,1.4,1.4,1.4,2.5,1.2c6.5-1.2,15.7-17.8,18.4-22c1.2-1.8,2.5-2.8,3.7-3
		c2.2-0.4,4.2,1.3,4.6,3.5c0.2,0.9,0.1,2.2-0.6,3.2C548.4,94.9,536.1,113.3,522.4,115.8z M512.8,69.4c-3,0.6-8.5,10.2-11.6,17.8
		c-4.2,10.1-5.3,16.8-4.9,18.9c0.2,0.9,0.5,1,1,0.9c4.1-0.8,9.9-13.4,11.1-17.4c1.9-5.9,3.9-12,6.4-17.3
		C514.4,71,513.8,69.3,512.8,69.4z"/>
	<path class="st0" d="M581,106.1c-6.2,1.1-18.2-5.1-19.5-12.3c-0.9-4.8,5.7-23.9,8.1-31.1c-1.7,0.5-3.4,0.9-5.2,1.4
		c-2.2,4.9-11.6,27.6-16.8,28.5c-2.2,0.4-4.6-1-5.1-3.4c-0.2-1.1-0.1-2.2,0.5-3.4c4-8,9.2-15.6,11.7-24.2c-1.7-1.4-3.9-4.1-4.6-7.9
		c-0.7-4.1,1.2-11.2,8.4-12.6c6.2-1.1,10.3,3.1,11.1,7.6c0.2,1.2,0.1,2.5,0,3.6c5.4-2.2,8.4-8.7,11.9-9.3c5.4-1,10.9,8.6,12,14.1
		c0.2,1.4,0.3,2.4-0.1,3.1c-2.2,4.1-14.1,24.8-12.7,32.1c0.3,1.7,1.7,2.8,3.4,2.5c3.3-0.6,7.3-6.6,8.8-8.6c5.2-7.3,10-17.3,13.5-18
		c2.2-0.4,4.4,0.7,4.8,3c0.2,0.9-0.1,2-0.7,3.4C605.7,84.8,593.4,103.8,581,106.1z"/>
	<path class="st0" d="M628.3,96.6c-11.5,2.1-20.7-1.5-25.7-9.4c-0.6,0.4-1.2,0.5-1.9,0.6c-2.7,0.5-5.2-0.8-5.6-2.9
		c-0.2-1.4,11.8-20.9,14.9-29c2.5-6.2,7.6-19.6,11.9-20.3c2.4-0.4,4.9,1.4,6.6,2.8c2.1,1.8,6.1,2,6.6,4.7c0.3,1.8-1.2,7.7-0.3,12.6
		c1.6,9,7.2,12.2,9.5,18.8c4.8-4.1,8.6-15.1,12.3-15.7c2.1-0.4,4.3,0.9,4.7,3.2c0.1,0.8,0.1,1.7-0.2,2.5
		C658.9,70.7,646.4,93.3,628.3,96.6z M620,60.3c-0.1-0.5-0.2-0.9-0.2-1.4c-1.8,3-7.1,12.6-11.2,19.7c2.9,6,7.4,8,10.9,7.3
		c3.7-0.7,6.6-4.3,5.6-9.7c-0.2-1.1-0.6-2.2-1.1-3.4C622.2,68.7,620.7,64.2,620,60.3z"/>
	<path class="st0" d="M412.7,195.9c-1.2,9.5-1.1,27.1,1,39.1c2.1,11.7,5.3,13.9,11.2,12.9c6.2-1.1,11-7.3,13.7-11.7
		c0.1-0.2,0.3-0.2,0.5-0.2c0.8-0.1,2.5,0.9,2.8,2.6c1.3,7.4-13,20.1-22.5,21.8c-15.8,2.9-22.6-13.3-24.9-25.7
		c-0.5-2.9-0.9-5.7-1-8.4c-3.3-1-9.1-2.1-13.7-1.2c-12.4,2.3-24.3,8.2-36.9,10.5c-0.8,0.1-1.8,0.2-2.7,0.3
		c-8.1,14.1-14.9,26.6-15.8,28.7c-1.9,4.1-3.8,6.1-5.2,6.4c-1.8,0.3-5-4.2-5.6-7.5c-0.3-1.8,1.2-8,11.1-30.3
		c-5.7-2.5-8-6.9-9.6-15.5c-0.8-4.2-0.6-8.4,1.7-8.8c0.2,0,6.4,2.9,16.9,5c19.9-38.6,57.4-93.8,67.7-95.7c5.3-1,9,5.8,10.1,6.8
		c5.2,5,12.5,6.4,12.9,8.4c0.1,0.6,0.1,1.2-0.1,2C419,151.2,416.1,169.5,412.7,195.9z M354.1,211.8c8.2-2.6,18.5-5.2,25.3-6.5
		c5.4-1,9.9-0.9,12.9-0.3c0.8-10.7,1.7-34.1,3-43.7C388.4,167.4,370.6,184,354.1,211.8z"/>
	<path class="st0" d="M454.5,244c-3.5,0.6-6.6,0.6-9.7-0.2c-3.8-0.9-12.6-8.4-13.3-13.4c-0.6-4.2,5-19.5,10.5-33.7l-2.4,0.4
		c-2.5,0.5-7.8-3.1-8.5-6.8c-0.7-4.1,2.8-5.3,17.2-8.7c5.8-13.5,8.9-19,12.1-19.6c5.1-0.9,12.8,3.7,13.5,7.3
		c0.3,1.7-1.6,5.7-2.2,7.1c7.9-1.1,8.5-0.5,9.1,3.1c0.9,5-1.6,12.2-6.2,13.1c-2.4,0.4-6.3-0.1-9.7,0.2c-4.4,11-9.3,23-10.3,25.6
		c-1.9,5-3.7,9.7-3.1,12.5c0.4,2,1.8,2.6,4.8,2.1c3.7-0.7,8.8-3.3,13.5-8.2c6.8-7.1,10.1-18.5,14.1-19.2c2.1-0.4,4,1.3,4.4,3.5
		c0.2,1.1,0.1,2.2-0.4,3.3C483.7,222.8,471.4,240.9,454.5,244z"/>
	<path class="st0" d="M500.9,235.5c-3.5,0.6-6.6,0.6-9.7-0.2c-3.8-0.9-12.6-8.4-13.3-13.4c-0.6-4.2,5-19.5,10.5-33.7l-2.4,0.4
		c-2.5,0.5-7.8-3.1-8.5-6.8c-0.7-4.1,2.8-5.3,17.2-8.7c5.8-13.5,8.9-19,12.1-19.6c5.1-0.9,12.8,3.7,13.5,7.3
		c0.3,1.7-1.6,5.7-2.2,7.1c7.9-1.1,8.5-0.5,9.1,3.1c0.9,5-1.6,12.2-6.2,13.1c-2.4,0.4-6.3-0.1-9.7,0.2c-4.4,11-9.3,23-10.3,25.6
		c-1.9,5-3.7,9.7-3.1,12.5c0.4,2,1.8,2.6,4.8,2.1c3.7-0.7,8.8-3.3,13.5-8.2c6.8-7.1,10.1-18.5,14.1-19.2c2.1-0.4,4,1.3,4.4,3.5
		c0.2,1.1,0.1,2.2-0.4,3.3C530.1,214.4,517.7,232.4,500.9,235.5z"/>
	<path class="st0" d="M562,225.2c-6.2,1.1-18.2-5.1-19.5-12.3c-0.9-4.8,5.7-23.9,8.1-31.1c-1.7,0.5-3.4,0.9-5.2,1.4
		c-2.2,4.9-11.6,27.6-16.8,28.5c-2.2,0.4-4.6-1-5.1-3.4c-0.2-1.1-0.1-2.2,0.5-3.4c4-8,9.2-15.6,11.7-24.2c-1.7-1.4-3.9-4.1-4.6-7.9
		c-0.7-4.1,1.2-11.2,8.4-12.6c6.2-1.1,10.3,3.1,11.1,7.6c0.2,1.2,0.1,2.5,0,3.6c5.4-2.2,8.4-8.7,11.9-9.3c5.4-1,10.9,8.6,12,14.1
		c0.2,1.4,0.3,2.4-0.1,3.1c-2.2,4.1-14.1,24.8-12.7,32.1c0.3,1.7,1.7,2.8,3.4,2.5c3.3-0.6,7.3-6.6,8.8-8.6c5.2-7.3,10-17.3,13.5-18
		c2.2-0.4,4.4,0.7,4.8,3c0.2,0.9-0.1,2-0.7,3.4C586.7,203.9,574.4,222.9,562,225.2z"/>
	<path class="st0" d="M625.9,212.6c-4.9,0.9-10.5-0.1-13.4-4.9c-2.8,3.8-6.2,8.1-11.3,9.1c-7.2,1.3-17.6-6.4-19.6-17.2
		c-2.3-15.3,16.2-43.8,31.1-46.5c3.8-0.7,7.9,3.7,10.4,6.8c3.2-5.2,4.3-5.9,5.8-6.2c4-0.7,13.1,0.6,13.9,4.9
		c0.3,1.5-3.1,8.2-4.1,10.2c-4.8,9.6-11.3,25.7-10.4,30.3c0.2,1.4,1.4,1.4,2.5,1.2c6.5-1.2,15.7-17.8,18.4-22c1.2-1.8,2.5-2.8,3.7-3
		c2.2-0.4,4.2,1.3,4.6,3.5c0.2,0.9,0.1,2.2-0.6,3.2C651.9,191.7,639.6,210.1,625.9,212.6z M616.3,166.2c-3,0.6-8.5,10.2-11.6,17.8
		c-4.2,10.1-5.3,16.8-4.9,18.9c0.2,0.9,0.5,1,1,0.9c4.1-0.8,9.9-13.4,11.1-17.4c1.9-5.9,3.9-12,6.4-17.3
		C617.9,167.8,617.3,166,616.3,166.2z"/>
	<path class="st0" d="M699.9,186.3c-6.6,8.7-15.4,14.8-24,16.3c-6.7,1.2-20.4-2-23.9-6.8c-1.3-1.8-2.3-4.4-2.8-7.4
		c-3.8-20.9,14.5-44.9,28.7-47.5c0.8-0.1,1.5-0.1,2.3-0.3c4.4-0.2,15.5,4.8,16.5,10.5c0.4,4.7-2.4,14.6-6.4,15.3
		c-4.9,0.9-10-4.5-10.2-5.6c-0.5-2.7,1.8-6.4,1.6-7.4c-0.1-0.5-0.7-0.3-1-0.3c-2.4,0.4-16.4,18.2-13.8,32.5c0.9,4.8,3,7.7,9.7,6.5
		c8.8-1.6,16.7-9.4,24.6-23.7c0.9-1.6,2-2.4,3.1-2.6c2.2-0.4,4.5,1.2,4.9,3.6c0.1,0.8,0.1,1.5-0.2,2.4
		C708.4,173.1,705,179.8,699.9,186.3z"/>
	<path class="st0" d="M721.5,195.3c-3.5,0.6-6.6,0.6-9.7-0.2c-3.8-0.9-12.6-8.4-13.3-13.4c-0.6-4.2,5-19.5,10.5-33.7l-2.4,0.4
		c-2.5,0.5-7.8-3.1-8.5-6.8c-0.7-4.1,2.8-5.3,17.2-8.7c5.8-13.5,8.9-19,12.1-19.6c5.1-0.9,12.8,3.7,13.5,7.3
		c0.3,1.7-1.6,5.7-2.2,7.1c7.9-1.1,8.5-0.5,9.1,3.1c0.9,5-1.6,12.2-6.2,13.1c-2.4,0.4-6.3-0.1-9.7,0.2c-4.4,11-9.3,23-10.3,25.6
		c-1.9,5-3.7,9.7-3.1,12.5c0.4,2,1.8,2.6,4.8,2.1c3.7-0.7,8.8-3.3,13.5-8.2c6.8-7.1,10.1-18.5,14.1-19.2c2.1-0.4,4,1.3,4.4,3.5
		c0.2,1.1,0.1,2.2-0.4,3.3C750.7,174.1,738.3,192.2,721.5,195.3z"/>
	<path class="st0" d="M772.7,185.9c-11.5,2.1-20.7-1.5-25.7-9.4c-0.6,0.4-1.2,0.5-1.9,0.6c-2.7,0.5-5.2-0.8-5.6-2.9
		c-0.2-1.4,11.8-20.9,14.9-29c2.5-6.2,7.6-19.6,11.9-20.3c2.4-0.4,4.9,1.4,6.6,2.8c2.1,1.8,6.1,2,6.6,4.7c0.3,1.8-1.2,7.7-0.3,12.6
		c1.6,9,7.2,12.2,9.5,18.8c4.8-4.1,8.6-15.1,12.3-15.7c2.1-0.4,4.3,0.9,4.7,3.2c0.1,0.8,0.1,1.7-0.2,2.5
		C803.3,160,790.9,182.6,772.7,185.9z M764.4,149.6c-0.1-0.5-0.2-0.9-0.2-1.4c-1.8,3-7.1,12.6-11.2,19.7c2.9,6,7.4,8,10.9,7.3
		c3.7-0.7,6.6-4.3,5.6-9.7c-0.2-1.1-0.6-2.2-1.1-3.4C766.6,158,765.1,153.5,764.4,149.6z"/>
</g>
<path class="st0" d="M232.9,98.1c-0.2,1.1-0.4,2.1-0.7,3.2c-2,8.3-4.4,16.4-6.3,24.7c-0.1,0.2-0.1,0.5-0.3,0.6
	c-0.2,0.2-0.5,0.1-0.8,0.1c-13.9-1.5-52.6-15.6-40.7-35.8c2.6-4.4,8.8-5.5,13.6-3.8c4.8,1.7,8.5,5.6,11.8,9.5
	c-0.2-4.5,0.4-9,1.7-13.3c1.4-4.7,6.2-7.8,11-8.2C234.1,74.2,234.4,90.3,232.9,98.1z"/>
</svg>
